<?xml version="1.0" encoding="UTF-8"?>
<svg width="893.32" height="128.13" enable-background="new" version="1.1" viewBox="0 0 236.36 33.901" xmlns="http://www.w3.org/2000/svg" xmlns:cc="http://creativecommons.org/ns#" xmlns:dc="http://purl.org/dc/elements/1.1/" xmlns:rdf="http://www.w3.org/1999/02/22-rdf-syntax-ns#"><metadata><rdf:RDF><cc:Work rdf:about=""><dc:format>image/svg+xml</dc:format><dc:type rdf:resource="http://purl.org/dc/dcmitype/StillImage"/><dc:title/></cc:Work></rdf:RDF></metadata><g transform="matrix(.26458 0 0 .26458 -69.068 -20.882)" aria-label="Discord4J"><g id="gtext" transform="translate(235.32 -81.966)"><g fill="#2c2f33"><path d="m25.721 162.65v124.61h46.64c24.992 0.176 48.4-12.32 48.4-41.008v-41.888c0-29.04-23.408-41.712-48.4-41.712zm31.68 95.04v-65.648h16.016c10.56 0 15.664 5.104 15.664 13.2v38.896c0 8.096-4.928 13.552-15.664 13.552z"/><path d="m169.29 162.65h-31.504v124.61h31.504z"/><path d="m183.02 266.49c11.616 14.96 27.456 22.528 42.416 22.528 22.88 0 48.224-13.2 49.28-37.312 1.408-30.624-20.768-38.368-42.944-42.416-9.68-2.112-16.192-5.632-16.544-11.616 0.528-14.432 22.88-14.96 35.904-1.056l20.592-15.84c-12.848-15.664-27.456-19.888-42.592-19.888-22.88 0-45.056 12.848-45.056 37.312 0 23.76 18.304 36.432 38.368 39.6 10.208 1.408 21.648 5.456 21.296 12.496-0.88 13.376-28.336 12.672-40.832-2.464z"/><path d="m351.88 248.36c-6.864 17.248-35.024 13.024-35.024-1.936v-42.944c0-15.488 27.808-19.008 36.256-3.52l25.696-10.384c-10.032-22.176-28.512-28.688-43.824-28.688-24.992 0-49.632 14.432-49.632 42.592v42.944c0 28.336 24.64 42.592 49.104 42.592 15.664 0 34.496-7.744 44.88-27.984z"/><path d="m387.79 246.25c0 28.512 25.872 42.768 51.744 42.768s51.568-14.256 51.568-42.768v-42.592c0-28.512-25.872-42.768-51.744-42.768s-51.568 14.08-51.568 42.768zm31.504-42.592c0-9.152 9.856-14.08 19.712-14.08 10.208 0 20.592 4.4 20.592 14.08v42.592c0 8.976-10.032 13.552-20.064 13.552s-20.24-4.4-20.24-13.552z"/><path d="m574.01 287.26h39.248l-33.968-42.768c15.136-4.752 24.464-17.776 24.464-40.832-0.704-29.216-20.592-41.008-46.288-41.008h-49.808v124.61h31.856v-39.6h5.632zm-34.496-66.704v-28.512h18.48c19.888 0 19.888 28.512 0 28.512z"/><path d="m621.44 162.65v124.61h46.64c24.992 0.176 48.4-12.32 48.4-41.008v-41.888c0-29.04-23.408-41.712-48.4-41.712zm31.68 95.04v-65.648h16.016c10.56 0 15.664 5.104 15.664 13.2v38.896c0 8.096-4.928 13.552-15.664 13.552z"/></g><g id="g4j" fill="#7289da"><path d="m819.21 234.64h-11.616v-71.984h-25.872l-58.08 79.024 10.032 18.48h43.824v27.104h30.096v-27.104h11.616zm-61.424 0.352 22.352-31.856-0.352 31.856z"/><path d="m825.24 250.65c3.52 26.4 24.816 38.368 46.288 38.368 23.76 0 47.52-15.312 47.52-42.416v-83.952h-59.488v28.512h28.336v55.44c0 7.216-7.392 11.968-15.136 11.968s-16.016-4.048-17.776-14.08z"/></g></g></g></svg>
