<?xml version="1.0" standalone="no"?>
<!DOCTYPE svg PUBLIC "-//W3C//DTD SVG 20010904//EN"
 "http://www.w3.org/TR/2001/REC-SVG-20010904/DTD/svg10.dtd">
<svg version="1.0" xmlns="http://www.w3.org/2000/svg"
 width="700.000000pt" height="700.000000pt" viewBox="0 0 700.000000 700.000000"
 preserveAspectRatio="xMidYMid meet">
<metadata>
Created by potrace 1.11, written by Peter Selinger 2001-2013
</metadata>
<g transform="translate(0.000000,700.000000) scale(0.100000,-0.100000)"
fill="#000000" stroke="none">
<path d="M3301 6989 c-1414 -77 -2647 -1010 -3107 -2354 -221 -642 -248 -1357
-79 -2010 358 -1378 1505 -2396 2915 -2589 289 -40 697 -38 975 3 772 115
1469 473 2012 1034 514 531 843 1210 949 1957 36 261 36 664 -2 940 -213 1560
-1434 2781 -2994 2994 -105 14 -440 37 -500 34 -14 0 -90 -5 -169 -9z m735
-1666 c-95 -164 -203 -353 -242 -420 l-69 -122 -288 -1 c-159 0 -286 3 -284 8
105 183 376 655 419 730 l60 102 288 0 288 0 -172 -297z m-806 41 c0 -3 -75
-135 -167 -295 l-167 -289 -289 0 -289 0 20 33 c11 17 70 120 132 227 62 107
130 225 152 263 l39 67 284 0 c157 0 285 -2 285 -6z m1350 -1911 c0 -1293 1
-1267 -60 -1436 -111 -302 -392 -507 -765 -557 -64 -8 -255 -10 -665 -8 -639
5 -638 5 -815 75 -295 118 -468 317 -541 623 -16 69 -18 167 -21 1278 l-4
1202 1436 0 1435 0 0 -1177z m1056 913 c273 -41 471 -170 569 -371 69 -140 70
-148 70 -665 0 -409 -2 -473 -17 -532 -54 -208 -209 -373 -425 -451 -146 -53
-197 -57 -689 -57 l-454 0 2 248 3 247 450 5 c488 5 483 5 543 63 58 56 62 89
62 482 0 386 -5 428 -57 477 -62 58 -83 62 -290 66 l-193 4 -2 -424 -3 -425
-257 234 -258 234 0 440 0 439 428 0 c310 0 452 -4 518 -14z"/>
</g>
</svg>
